# xmcd
#
# Track frame offsets:
#	183
#	18913
#	38438
#	55010
#	74743
#	95210
#	114068
#	132458
#	150295
#	170173
#	191765
#
# Disc length: 2825 seconds
#
# Revision: 1
# Processed by: cddbd v1.5.1PL0 Copyright (c) Steve Scherf et al.
# Submitted via: dBpowerAMP V4.0
#
DISCID=8f0b070b
DTITLE=Marlon Jackson - Baby Tonight
DYEAR=1987
DGENRE=Blues
TTITLE0=Don't Go
TTITLE1=To Get Away
TTITLE2=When Will You Surrender
TTITLE3=Lovely Eyes
TTITLE4=Baby Tonight
TTITLE5=Something Coming Down
TTITLE6=Life
TTITLE7=She Never Cried
TTITLE8=Talk 2-U
TTITLE9=Where Do I Stand
TTITLE10=Everyday Everynight (Bonus Track)
EXTD=07777-46942-23
EXTT0=
EXTT1=
EXTT2=
EXTT3=
EXTT4=
EXTT5=
EXTT6=
EXTT7=
EXTT8=
EXTT9=
EXTT10=
PLAYORDER=
